<!--?xml version="1.0" encoding="UTF-8"?--><svg id="Layer_1" xmlns="http://www.w3.org/2000/svg" viewBox="0 0 1600 1600"><defs><style>.cls-1{fill:none;}.cls-1,.cls-2,.cls-3,.cls-4{stroke:#ECCDDF;stroke-linejoin:round;stroke-width:1.70px;}.cls-2{fill:#EB6CA8;}.cls-3{fill:#fff;}.cls-4{fill:#ECCDDF;stroke-linecap:round;}</style></defs><g id="door_dur_wall"><path class="cls-4" d="m415.63,1209.95s3.77-33.97,0-267.78c-3.77-233.81-23.27-545.87-1.9-550.44,21.37-4.57,441.79-1.52,549.88-3.81,108.09-2.28,203.01-4.3,206.78,10.24,3.77,14.55-6.94,469.5-.66,575.56,6.28,106.06,21.85,230.89.87,236.22-20.98,5.33-395.97.37-466.35,1.89-70.38,1.52-197.74-1.42-288.62-1.89Z"></path><path class="cls-3" d="m1209.4,909.39l-151.1-.85c-6.72-.04-12.95,3.51-16.34,9.31l-14.54,33.21c-10.11,23.1-22.82,44.98-37.89,65.2l-23.86,32.02c-3.39,5.8-3.43,12.97-.11,18.8l74.81,131.28c3.33,5.84,9.51,9.46,16.23,9.49l151.1.85c6.72.04,12.95-3.51,16.34-9.31l9.86-14.9c8.53-12.89,15.49-26.76,20.73-41.31h0c6.98-19.38,17-37.52,29.68-53.74l16.01-20.47c3.39-5.8,3.43-12.97.11-18.8l-35.49-70.59-39.33-60.69c-3.33-5.84-9.51-9.46-16.23-9.49Z"></path><path class="cls-2" d="m1273.21,847.13l-8.69,81.9c-1,9.45-7.59,16.5-14.71,15.74,0,0-223.28-23.26-343.7-44.88-47.61-8.55-192.96-12.08-192.96-12.08-7.12-.76-12.08-9.03-11.08-18.48l8.69-81.9c1-9.45,7.59-16.5,14.71-15.74l196.56,16.86c43.67,2.12,100.98,4.3,144.11,11.44l195.98,28.67c7.12.76,12.08,9.03,11.08,18.48Z"></path><path class="cls-2" d="m1029.79,1065.23c0,94.39-62.56,143.48-156.94,143.48s-170.91-49.09-170.91-143.48,76.52-170.91,170.91-170.91,156.94,76.52,156.94,170.91Z"></path><path class="cls-3" d="m1029.79,723.19c0,43.19-28.62,65.65-71.81,65.65s-78.2-22.46-78.2-65.65,35.01-78.2,78.2-78.2,71.81,35.01,71.81,78.2Z"></path><path class="cls-2" d="m1160.39,646.93s-98.25,16.21-166.24,20.32c-38.66,2.34-154.44,12.1-154.44,12.1-11.2,1.13-19.16-10.66-13.91-20.63l135.9-257.92c4.71-8.94,17.01-10.18,23.41-2.37,0,0,54.92,78.55,93.62,114.26,41.41,38.2,91.15,111.24,91.15,111.24,7.14,8.71,1.7,21.86-9.5,22.99Z"></path><path class="cls-3" d="m303.01,1211.97s-5.02-192.15-5.58-306.39c-.74-150.21,1.8-327.6-.04-381.72-1.84-54.12,5.03-130.28,8.33-135.24,3.3-4.97,148.79-1.38,193.14,0,44.36,1.38,178.43-3.16,195.81-2.55,17.38.62,27.72-.63,28.97,10.55,1.24,11.17-3.31,278.07,0,375.72,3.31,97.66-2.04,300.83.22,346.76,2.26,45.93,3.5,84-2.7,90.21-6.21,6.21-212.78,2.62-282.3,3.03-69.52.41-130.25,3.71-135.85-.37Z"></path><path class="cls-1" d="m369.25,1131.41s1.29-64,0-95.63c-1.29-31.63,1.03-104.64,0-125.79-1.03-21.15-.26-25.38,7.23-26.85,7.49-1.47,71.14.38,87.92.75,16.78.37,29.69-1.25,33.3,3.35,3.61,4.6-2.21,94.48-2.99,128.68-.77,34.21,1.55,109.24-2.58,113.29-4.13,4.05-56.28,2.21-77.96,2.21h-44.92Z"></path><path class="cls-1" d="m383.83,1109.41s.58-75.86,2.33-100.01c1.75-24.15-.75-71.25-.08-92.42.35-11.27.96-15.96,5.91-16.34,4.95-.38,84.44-.76,87.93,0,3.49.76,1.16,42.59,0,70.35-1.16,27.76-1.16,89.17-.58,106.86.58,17.68,2.62,32.89-1.75,33.84-4.37.95-85.02-.19-93.76-2.28Z"></path><path class="cls-1" d="m530.28,1130.33s1.29-64,0-95.63c-1.29-31.63,1.03-104.64,0-125.79-1.03-21.15-.26-25.38,7.23-26.85,7.49-1.47,71.14.38,87.92.75,16.78.37,29.69-1.25,33.3,3.35,3.61,4.6-2.21,94.48-2.99,128.68-.77,34.21,1.55,109.24-2.58,113.29-4.13,4.05-56.28,2.21-77.96,2.21h-44.92Z"></path><path class="cls-1" d="m544.87,1108.33s.58-75.86,2.33-100.01c1.75-24.15,1.16-79.1,3.49-90.13,2.33-11.03-2.62-18.25,2.33-18.63,4.95-.38,84.44-.76,87.93,0,3.49.76,1.16,42.59,0,70.35-1.16,27.76-1.16,89.17-.58,106.86.58,17.68,2.62,32.89-1.75,33.84-4.37.95-85.02-.19-93.76-2.28Z"></path><path class="cls-1" d="m530.28,842.2s1.29-64,0-95.63c-1.29-31.63,1.03-104.64,0-125.79-1.03-21.15-.26-25.38,7.23-26.85,7.49-1.47,71.14.38,87.92.75,16.78.37,29.69-1.25,33.3,3.35,3.61,4.6-2.21,94.48-2.99,128.68-.77,34.21,1.55,109.24-2.58,113.29-4.13,4.05-56.28,2.21-77.96,2.21h-44.92Z"></path><path class="cls-1" d="m544.87,820.21s.58-75.86,2.33-100.01c1.75-24.15,3.67-72.84,2.75-84.08-1.2-14.54-1.87-24.3,3.08-24.68,4.95-.38,84.44-.76,87.93,0,3.49.76,1.16,42.59,0,70.35-1.16,27.76-1.16,89.17-.58,106.86.58,17.68,2.62,32.89-1.75,33.84-4.37.95-85.02-.19-93.76-2.28Z"></path><path class="cls-1" d="m368.19,850.84s1.29-64,0-95.63c-1.29-31.63,1.03-104.64,0-125.79-1.03-21.15-.26-25.38,7.23-26.85,7.49-1.47,71.14.38,87.92.75,16.78.37,29.69-1.25,33.3,3.35,3.61,4.6-2.21,94.48-2.99,128.68-.77,34.21,1.55,109.24-2.58,113.29s-56.28,2.21-77.96,2.21h-44.92Z"></path><path class="cls-1" d="m382.77,828.85s.58-75.86,2.33-100.01c1.75-24.15.06-83.5,1.34-94.7,1.24-10.81-.47-13.68,4.48-14.06,4.95-.38,84.44-.76,87.93,0,3.49.76,1.16,42.59,0,70.35-1.16,27.76-1.16,89.17-.58,106.86.58,17.68,2.62,32.89-1.75,33.84-4.37.95-85.02-.19-93.76-2.28Z"></path><path class="cls-1" d="m361.59,538.84s1.29-22.89,0-34.2c-1.29-11.31,1.03-37.42,0-44.98-1.03-7.56-.26-9.08,7.23-9.6,7.49-.53,71.14.14,87.92.27,16.78.13,29.69-.45,33.3,1.2,3.61,1.64,1.95,33.91,1.17,46.15-.77,12.23,2.55,39.87-1.58,41.32-4.13,1.45-61.43-.15-83.12-.15h-44.92Z"></path><path class="cls-1" d="m382.77,526.55s-1.75-26.49,0-35.13c1.75-8.63-3.11-24.49-.78-28.43,2.33-3.94,88.69,2.13,88.69,2.13-1.16,9.93.41,48.25,1,54.57.58,6.32-8.9,7.58-31.34,7.41-4.38-.03-48.82.2-57.56-.55Z"></path><path class="cls-1" d="m533.83,535.59s1.29-22.89,0-34.2c-1.29-11.31,1.03-37.42,0-44.98-1.03-7.56-.26-9.08,7.23-9.6,7.49-.53,71.14.14,87.92.27,16.78.13,29.69-.45,33.3,1.2,3.61,1.64,1.95,33.91,1.17,46.15-.77,12.23,2.55,39.87-1.58,41.32-4.13,1.45-61.43-.15-83.12-.15h-44.92Z"></path><path class="cls-1" d="m555.02,523.29s-1.75-26.49,0-35.13c1.75-8.63-3.11-24.49-.78-28.43,2.33-3.94,88.69,2.13,88.69,2.13-1.16,9.93.41,48.25,1,54.57.58,6.32-8.9,7.58-31.34,7.41-4.38-.03-48.82.2-57.56-.55Z"></path><path class="cls-4" d="m316.38,843.88s-9.38-9.38-2.21-22.07c7.17-12.69,30.07-7.72,32-4.97,1.93,2.76,11.31,19.03,0,27.03-11.31,8-25.86,6.71-29.79,0Z"></path><path class="cls-4" d="m330.43,802.1s-3.65-3.65-.86-8.6c2.79-4.94,11.71-3.01,12.47-1.93.75,1.07,4.41,7.41,0,10.53-4.41,3.12-10.07,2.61-11.61,0Z"></path></g></svg>