<svg width="938" height="938" viewBox="0 0 938 938" fill="none" xmlns="http://www.w3.org/2000/svg">
<rect width="938" height="938" rx="190" fill="url(#paint0_linear_415_67)"/>
<path d="M471.446 226.856C471.446 257.598 445.964 281.679 416.613 290.823C341.708 314.16 287.331 384.047 287.331 466.633C287.331 568.316 369.762 650.746 471.446 650.746C554.027 650.746 623.91 596.378 647.253 521.483C656.4 492.134 680.481 466.654 711.223 466.654C741.968 466.654 767.44 491.812 761.711 522.019C735.786 658.714 615.688 762.077 471.447 762.078C308.276 762.078 176 629.803 176 466.634C176 322.387 279.377 202.284 416.087 176.37C446.292 170.644 471.446 196.114 471.446 226.856Z" fill="white"/>
<circle cx="663" cy="275" r="83" fill="white"/>
<defs>
<linearGradient id="paint0_linear_415_67" x1="938" y1="469" x2="0" y2="469" gradientUnits="userSpaceOnUse">
<stop stop-color="#E64792"/>
<stop offset="1" stop-color="#A62671"/>
</linearGradient>
</defs>
</svg>
