<svg width="30" height="30" viewBox="0 0 30 30" fill="none" xmlns="http://www.w3.org/2000/svg">
<path d="M22.4291 27.2C20.9999 28.5854 19.4395 28.3667 17.9374 27.7104C16.3478 27.0396 14.8895 27.0104 13.2124 27.7104C11.1124 28.6146 10.0041 28.3521 8.74991 27.2C1.63324 19.8646 2.68324 8.69375 10.7624 8.28542C12.7312 8.3875 14.102 9.36458 15.2541 9.45208C16.9749 9.10208 18.6228 8.09583 20.4603 8.22708C22.6624 8.40208 24.3249 9.27708 25.4187 10.8521C20.8687 13.5792 21.9478 19.5729 26.1187 21.25C25.2874 23.4375 24.2082 25.6104 22.4145 27.2146L22.4291 27.2ZM15.1082 8.19792C14.8895 4.94583 17.5291 2.2625 20.5624 2C20.9853 5.7625 17.1499 8.5625 15.1082 8.19792Z" fill="black"/>
</svg>
