<svg width="30" height="30" viewBox="0 0 30 30" fill="none" xmlns="http://www.w3.org/2000/svg">
<path d="M27 15C27 8.37262 21.6274 3 15 3C8.37262 3 3 8.37262 3 15C3 20.9895 7.38825 25.954 13.125 26.8542V18.4688H10.0781V15H13.125V12.3563C13.125 9.34875 14.9166 7.6875 17.6576 7.6875C18.9705 7.6875 20.3438 7.92188 20.3438 7.92188V10.875H18.8306C17.3399 10.875 16.875 11.8 16.875 12.7491V15H20.2031L19.6711 18.4688H16.875V26.8542C22.6117 25.954 27 20.9896 27 15Z" fill="#1877F2"/>
<path d="M19.6711 18.4688L20.2031 15H16.875V12.7491C16.875 11.7999 17.3399 10.875 18.8306 10.875H20.3438V7.92188C20.3438 7.92188 18.9705 7.6875 17.6575 7.6875C14.9166 7.6875 13.125 9.34875 13.125 12.3563V15H10.0781V18.4688H13.125V26.8542C13.7453 26.9514 14.3722 27.0001 15 27C15.6278 27.0001 16.2547 26.9514 16.875 26.8542V18.4688H19.6711Z" fill="white"/>
</svg>
