<svg width="30" height="30" viewBox="0 0 30 30" fill="none" xmlns="http://www.w3.org/2000/svg">
<path d="M26.7665 12.6497H25.7999V12.5999H14.9999V17.3998H21.7817C20.7923 20.194 18.1337 22.1998 14.9999 22.1998C11.0238 22.1998 7.79997 18.976 7.79997 14.9999C7.79997 11.0237 11.0238 7.79995 14.9999 7.79995C16.8353 7.79995 18.5051 8.49234 19.7765 9.62333L23.1707 6.22916C21.0275 4.23179 18.1607 3 14.9999 3C8.37297 3 3 8.37294 3 14.9999C3 21.6268 8.37297 26.9997 14.9999 26.9997C21.6269 26.9997 26.9999 21.6268 26.9999 14.9999C26.9999 14.1953 26.9171 13.4099 26.7665 12.6497Z" fill="#FFC107"/>
<path d="M4.38379 9.41453L8.32637 12.3059C9.39316 9.66473 11.9767 7.79995 15.0001 7.79995C16.8355 7.79995 18.5053 8.49234 19.7767 9.62333L23.1709 6.22916C21.0277 4.23179 18.1609 3 15.0001 3C10.391 3 6.39378 5.60217 4.38379 9.41453Z" fill="#FF3D00"/>
<path d="M14.9998 26.9996C18.0994 26.9996 20.9158 25.8134 23.0452 23.8845L19.3312 20.7417C18.0862 21.6891 16.5644 22.2014 14.9998 22.1997C11.8787 22.1997 9.22847 20.2095 8.23007 17.4321L4.31689 20.4471C6.30288 24.3333 10.3361 26.9996 14.9998 26.9996Z" fill="#4CAF50"/>
<path d="M26.7665 12.6489H25.7999V12.5991H15V17.3991H21.7818C21.3085 18.7289 20.456 19.8909 19.3296 20.7416L19.3314 20.7404L23.0454 23.8832C22.7826 24.122 26.9999 20.999 26.9999 14.9991C26.9999 14.1945 26.9171 13.4091 26.7665 12.6489Z" fill="#1976D2"/>
</svg>
