<svg width="44" height="44" viewBox="0 0 44 44" fill="none" xmlns="http://www.w3.org/2000/svg">
<path d="M30 7.23315C32.5138 8.68458 34.6049 10.7674 36.0664 13.2753C37.5278 15.7833 38.3089 18.6294 38.3324 21.5321C38.3558 24.4347 37.6208 27.2931 36.2 29.8243C34.7793 32.3556 32.7221 34.4718 30.2321 35.9637C27.7421 37.4555 24.9056 38.2712 22.0035 38.3299C19.1014 38.3887 16.2343 37.6884 13.6859 36.2986C11.1376 34.9087 8.99645 32.8774 7.47444 30.4057C5.95244 27.934 5.10235 25.1077 5.00833 22.2065L5 21.6665L5.00833 21.1265C5.10167 18.2481 5.93925 15.4431 7.4394 12.9848C8.93955 10.5265 11.0511 8.49891 13.5682 7.09962C16.0852 5.70034 18.9219 4.97715 21.8017 5.00055C24.6814 5.02395 27.506 5.79315 30 7.23315ZM21.6667 11.6665C21.2584 11.6665 20.8644 11.8164 20.5594 12.0877C20.2543 12.3589 20.0594 12.7327 20.0117 13.1382L20 13.3332V21.6665L20.015 21.8848C20.053 22.174 20.1662 22.4481 20.3433 22.6798L20.4883 22.8465L25.4883 27.8465L25.645 27.9832C25.9373 28.2099 26.2967 28.333 26.6667 28.333C27.0366 28.333 27.396 28.2099 27.6883 27.9832L27.845 27.8448L27.9833 27.6882C28.2101 27.3959 28.3332 27.0364 28.3332 26.6665C28.3332 26.2965 28.2101 25.9371 27.9833 25.6448L27.845 25.4882L23.3333 20.9748V13.3332L23.3217 13.1382C23.2739 12.7327 23.079 12.3589 22.774 12.0877C22.4689 11.8164 22.0749 11.6665 21.6667 11.6665Z" fill="#B5B5B5"/>
</svg>
