<svg width="34" height="34" viewBox="0 0 34 34" fill="none" xmlns="http://www.w3.org/2000/svg">
<path d="M25 2.23315C27.5138 3.68458 29.6049 5.76736 31.0664 8.27532C32.5278 10.7833 33.3089 13.6294 33.3324 16.5321C33.3558 19.4347 32.6208 22.2931 31.2 24.8243C29.7793 27.3556 27.7221 29.4718 25.2321 30.9637C22.7421 32.4555 19.9056 33.2712 17.0035 33.3299C14.1014 33.3887 11.2343 32.6884 8.68592 31.2986C6.1376 29.9087 3.99645 27.8774 2.47444 25.4057C0.952437 22.934 0.102349 20.1077 0.00833352 17.2065L0 16.6665L0.00833352 16.1265C0.101672 13.2481 0.939246 10.4431 2.4394 7.98481C3.93955 5.52653 6.05109 3.49891 8.56815 2.09962C11.0852 0.700342 13.9219 -0.0228513 16.8017 0.000550409C19.6814 0.0239521 22.506 0.79315 25 2.23315ZM16.6667 6.66649C16.2584 6.66654 15.8644 6.81641 15.5594 7.08768C15.2543 7.35894 15.0594 7.73274 15.0117 8.13815L15 8.33315V16.6665L15.015 16.8848C15.053 17.174 15.1662 17.4481 15.3433 17.6798L15.4883 17.8465L20.4883 22.8465L20.645 22.9832C20.9373 23.2099 21.2967 23.333 21.6667 23.333C22.0366 23.333 22.396 23.2099 22.6883 22.9832L22.845 22.8448L22.9833 22.6882C23.2101 22.3959 23.3332 22.0364 23.3332 21.6665C23.3332 21.2965 23.2101 20.9371 22.9833 20.6448L22.845 20.4882L18.3333 15.9748V8.33315L18.3217 8.13815C18.2739 7.73274 18.079 7.35894 17.774 7.08768C17.4689 6.81641 17.0749 6.66654 16.6667 6.66649Z" fill="#A62671"/>
</svg>
