<svg width="44" height="44" viewBox="0 0 44 44" fill="none" xmlns="http://www.w3.org/2000/svg">
<path d="M7.33325 34.8334V18.3334C7.33325 17.7529 7.46342 17.2029 7.72375 16.6834C7.98408 16.164 8.34281 15.7362 8.79992 15.4001L19.7999 7.15008C20.4416 6.66119 21.1749 6.41675 21.9999 6.41675C22.8249 6.41675 23.5583 6.66119 24.1999 7.15008L35.1999 15.4001C35.6583 15.7362 36.0176 16.164 36.2779 16.6834C36.5383 17.2029 36.6678 17.7529 36.6666 18.3334V34.8334C36.6666 35.8417 36.3073 36.7052 35.5886 37.4239C34.8699 38.1426 34.007 38.5013 32.9999 38.5001H27.4999C26.9805 38.5001 26.5454 38.3241 26.1946 37.9721C25.8438 37.6201 25.6678 37.185 25.6666 36.6667V27.5001C25.6666 26.9806 25.4906 26.5455 25.1386 26.1947C24.7866 25.844 24.3515 25.668 23.8333 25.6667H20.1666C19.6471 25.6667 19.212 25.8427 18.8613 26.1947C18.5105 26.5467 18.3345 26.9819 18.3333 27.5001V36.6667C18.3333 37.1862 18.1573 37.6219 17.8053 37.9739C17.4533 38.3259 17.0181 38.5013 16.4999 38.5001H10.9999C9.99159 38.5001 9.1287 38.1414 8.41125 37.4239C7.69381 36.7065 7.33447 35.843 7.33325 34.8334Z" fill="#A3A3A3"/>
</svg>
