<svg width="44" height="44" viewBox="0 0 44 44" fill="none" xmlns="http://www.w3.org/2000/svg">
<path fill-rule="evenodd" clip-rule="evenodd" d="M14.6667 12.8333C14.6667 10.8884 15.4393 9.02315 16.8146 7.64788C18.1898 6.27262 20.0551 5.5 22 5.5C23.9449 5.5 25.8102 6.27262 27.1854 7.64788C28.5607 9.02315 29.3333 10.8884 29.3333 12.8333C29.3333 14.7783 28.5607 16.6435 27.1854 18.0188C25.8102 19.3941 23.9449 20.1667 22 20.1667C20.0551 20.1667 18.1898 19.3941 16.8146 18.0188C15.4393 16.6435 14.6667 14.7783 14.6667 12.8333ZM14.6667 23.8333C12.2355 23.8333 9.90394 24.7991 8.18485 26.5182C6.46577 28.2373 5.5 30.5688 5.5 33C5.5 34.4587 6.07946 35.8576 7.11091 36.8891C8.14236 37.9205 9.54131 38.5 11 38.5H33C34.4587 38.5 35.8576 37.9205 36.8891 36.8891C37.9205 35.8576 38.5 34.4587 38.5 33C38.5 30.5688 37.5342 28.2373 35.8151 26.5182C34.0961 24.7991 31.7645 23.8333 29.3333 23.8333H14.6667Z" fill="#A3A3A3"/>
</svg>
